<svg width="433" height="433" viewBox="0 0 433 433" fill="none" xmlns="http://www.w3.org/2000/svg">
<path fill-rule="evenodd" clip-rule="evenodd" d="M216.5 76.42C244.206 76.421 271.29 84.6378 294.326 100.031C317.363 115.425 335.317 137.304 345.919 162.901C356.52 188.499 359.294 216.665 353.887 243.839C348.481 271.013 335.138 295.973 315.547 315.564C295.955 335.154 270.993 348.495 243.819 353.899C216.645 359.304 188.479 356.528 162.882 345.925C137.285 335.321 115.408 317.365 100.016 294.328C84.6239 271.29 76.409 244.206 76.41 216.5C76.4119 179.347 91.1722 143.717 117.444 117.447C143.716 91.177 179.347 76.4192 216.5 76.42ZM216.5 0C336.07 0 433 96.94 433 216.5C433 336.06 336.07 433 216.5 433C96.93 433 0 336.07 0 216.5C0 96.93 96.93 0 216.5 0Z" fill="#F5F5F5"/>
</svg>
