<svg width="100" height="36" viewBox="0 0 100 36" fill="none" xmlns="http://www.w3.org/2000/svg">
<path d="M0 27.3803H8.03662V35.3915H0V27.3803Z" fill="black"/>
<path d="M21.3632 21.093L9.76602 0.507042H19.532L23.4995 8.92394C24.6185 11.3577 25.6358 13.893 25.6358 13.893C25.6358 13.893 26.6531 11.2563 27.7721 8.92394L31.6378 0.507042H41.4039L29.9084 21.093V35.3915H21.3632V21.093Z" fill="#E4002B"/>
<path d="M46.999 0.507042H68.8708V7.80845H55.5443V14.0958H66.2258V21.3972H55.5443V27.9887H69.5829V35.2901H46.999V0.507042Z" fill="#E4002B"/>
<path d="M79.3489 24.4394C81.2818 26.1634 84.6389 28.0901 87.7925 28.0901C90.234 28.0901 91.4547 26.9746 91.4547 25.6563C91.4547 20.7887 75.9919 21.4986 75.9919 10.6479C75.9919 4.25915 81.2818 0 88.6063 0C92.472 0 96.5412 1.2169 99.5931 3.95493L95.9308 10.9521C93.998 9.22817 90.9461 7.90986 88.1994 7.90986C85.6562 7.90986 84.5371 9.02535 84.5371 10.3437C84.5371 15.3127 100 14.0958 100 25.1493C100 31.031 95.6256 36 87.589 36C83.0112 36 78.2299 34.3775 74.9746 31.031L79.3489 24.4394Z" fill="#E4002B"/>
</svg>
