<svg width="134" height="67" viewBox="0 0 134 67" fill="none" xmlns="http://www.w3.org/2000/svg">
<path fill-rule="evenodd" clip-rule="evenodd" d="M3.55536 7.36173C4.41351 7.36173 5.27173 7.64796 5.96643 8.17954C6.70203 8.83378 7.3559 9.5698 7.96887 10.3876C8.18591 10.669 8.40112 10.9527 8.61652 11.2366L8.61981 11.2409C10.188 13.3079 11.7648 15.3862 14.0988 16.6438C17.1229 18.2794 20.6782 18.443 23.825 17.0936C26.7264 15.8669 28.5654 13.4952 30.4453 11.0418C30.5302 10.9295 30.6146 10.8168 30.6991 10.7042C31.8748 9.13652 33.0342 7.59064 34.9406 7.36173C35.717 7.32084 36.4525 7.4844 37.1473 7.81153C38.0055 8.26132 38.7411 9.12001 39.5583 10.1423C39.8336 10.4824 40.1265 10.8611 40.4363 11.2617C41.6908 12.8838 43.224 14.8662 44.9935 16.1122C47.7316 17.9523 51.1644 18.4838 54.3519 17.5434C57.4169 16.6438 59.5419 14.4357 61.4218 11.9823C61.7202 11.6008 61.9917 11.2327 62.2472 10.8862L62.2479 10.8852C62.6219 10.3781 62.9618 9.91745 63.3016 9.52891C63.6964 9.05487 64.1675 8.58083 64.6411 8.18053C64.5265 8.2955 65.6626 7.58871 65.4768 7.66532C66.4058 7.23772 67.4873 7.20541 68.4507 7.60708C68.7681 7.74824 69.0552 7.95032 69.338 8.16075C69.3229 8.15373 69.423 8.2399 69.5117 8.31626C69.5453 8.34522 69.5773 8.37277 69.6007 8.39328C69.618 8.40836 69.6306 8.41964 69.6359 8.42488C69.9628 8.752 70.2897 9.07912 70.5758 9.40624C71.0684 9.96951 71.5658 10.6346 72.0883 11.3331L72.0897 11.3352L72.0901 11.3357C73.0839 12.6647 74.1677 14.1142 75.4797 15.2126C80.8331 19.7514 88.0256 18.3203 92.2756 13.0863C92.6877 12.5655 93.0797 12.0216 93.4668 11.4845C94.5383 9.9976 95.5726 8.56251 96.8936 7.81153C98.4873 6.99372 100.408 7.36173 101.593 8.67022C102.374 9.48575 103.066 10.4117 103.772 11.3575L103.774 11.359L103.774 11.3598C104.733 12.6422 105.718 13.9608 106.987 15.09C109.889 17.7069 113.935 18.6474 117.694 17.5843C121.045 16.6029 123.252 14.0677 125.255 11.369C125.99 10.3058 126.807 9.32446 127.747 8.42488C128.483 7.77064 129.423 7.40262 130.363 7.40262C135.103 7.27995 135.103 -0.0802637 130.363 0.0424066C127.175 0.0832967 124.151 1.43267 121.985 3.8043C121.079 4.73005 120.381 5.68934 119.704 6.62142C118.885 7.74783 118.095 8.8345 117 9.77425C115.61 10.8783 113.69 10.9601 112.218 9.93781C111.973 9.77425 110.584 8.30221 110.379 8.01598C110.014 7.55558 109.662 7.08285 109.307 6.60737L109.306 6.60581L109.305 6.60392C108.747 5.85587 108.184 5.10106 107.56 4.37676C103.146 -0.734505 95.8311 -1.38875 90.8044 3.19094C89.7084 4.19633 88.8292 5.38047 87.9816 6.52219L87.9812 6.52246V6.52265C87.312 7.4239 86.6625 8.2987 85.9414 9.03823C84.6746 10.3467 82.8765 11.0827 81.2827 10.3467C79.778 9.63999 78.7578 8.21749 77.6848 6.72118L77.6833 6.71897C77.3289 6.22477 76.9685 5.72256 76.5831 5.23545C74.785 2.98649 72.5374 0.982879 69.6768 0.328637C66.3257 -0.489165 62.7704 0.246857 60.0323 2.37314C58.559 3.52937 57.2898 5.19645 56.1816 6.65212L56.1802 6.65403C55.7212 7.25684 55.2899 7.82334 54.8832 8.30221C53.3711 10.0605 52.1451 11.0418 50.0201 10.5103C48.5393 10.1489 47.3138 8.50987 46.1462 6.94825L46.1459 6.94779C45.9926 6.74266 45.8402 6.53887 45.6884 6.33948C43.8085 3.88608 41.7651 1.63712 38.7411 0.573978C35.5944 -0.448275 32.1616 -0.0802636 29.3419 1.63712C27.3972 2.88117 25.8008 4.99616 24.4554 6.77853L24.4551 6.77892L24.4514 6.78389C24.0735 7.28433 23.7157 7.75844 23.3754 8.17954C21.7407 10.1423 19.9835 11.3281 17.9402 10.3876C16.4211 9.69931 15.3443 8.20645 14.2162 6.6426C13.736 5.97672 13.2463 5.29798 12.7094 4.66299C10.3391 1.80068 7.27417 0.124187 3.55536 0.00151645C-1.18512 -0.121154 -1.18512 7.23906 3.55536 7.36173ZM3.55536 31.8549C4.41351 31.8549 5.27173 32.1411 5.96643 32.6727C6.70203 33.3269 7.3559 34.063 7.96887 34.8399C8.18701 35.1226 8.40332 35.4078 8.61981 35.6931C10.188 37.7601 11.7648 39.8385 14.0988 41.0961C17.082 42.7317 20.6782 42.8952 23.825 41.5459C26.7264 40.3191 28.5654 37.9475 30.4453 35.4941C30.5302 35.3818 30.6146 35.2691 30.6991 35.1565C31.8748 33.5888 33.0342 32.0429 34.9406 31.814C35.717 31.7731 36.4525 31.9367 37.1473 32.2638C38.0055 32.7136 38.7411 33.5723 39.5583 34.6354C39.8336 34.9756 40.1265 35.3542 40.4363 35.7549C41.6908 37.377 43.224 39.3593 44.9935 40.6054C47.7316 42.4454 51.1644 42.977 54.3519 42.0365C57.376 41.1369 59.5011 38.9289 61.3809 36.4755C61.6796 36.0935 61.9514 35.7251 62.2073 35.3783L62.2087 35.3764C62.582 34.8701 62.9214 34.4101 63.2607 34.0221C63.6555 33.548 64.1266 33.074 64.6002 32.6737C64.4856 32.7887 65.6217 32.0819 65.4359 32.1585C66.3649 31.7309 67.4464 31.6986 68.4099 32.1002C68.7295 32.2423 69.049 32.4153 69.3417 32.6191C69.3622 32.6399 69.4399 32.7069 69.511 32.7678L69.5117 32.7685L69.5809 32.8283C69.6082 32.8519 69.6288 32.8701 69.6359 32.8771C69.9628 33.2043 70.2897 33.5314 70.5758 33.8585C71.0684 34.4218 71.5658 35.0869 72.0883 35.7854L72.0897 35.7875C73.0836 37.1167 74.1676 38.5664 75.4797 39.6649C80.8331 44.2037 88.0256 42.7726 92.2756 37.5386C92.7294 36.9799 93.1533 36.3947 93.5691 35.8206C94.6139 34.3782 95.6073 33.0067 96.8936 32.3047C98.4873 31.4869 100.408 31.8549 101.593 33.1634C102.374 33.9789 103.066 34.9049 103.772 35.8507L103.774 35.8521L103.774 35.853C104.733 37.1353 105.718 38.454 106.987 39.5831C109.889 42.2001 113.935 43.1406 117.694 42.0774C121.045 41.0961 123.252 38.5609 125.255 35.8621C125.99 34.799 126.807 33.8176 127.747 32.918C128.442 32.2638 129.382 31.8958 130.363 31.8958C135.103 31.7731 135.103 24.4129 130.363 24.5356C127.175 24.6173 124.151 25.9667 121.985 28.2975C121.068 29.2346 120.364 30.206 119.679 31.1528C118.869 32.2716 118.084 33.3559 117 34.3083C115.61 35.4123 113.69 35.4941 112.218 34.4719C111.973 34.3083 110.584 32.8363 110.379 32.55C110.045 32.1282 109.721 31.6959 109.396 31.2625L109.387 31.2509C108.802 30.47 108.214 29.6856 107.56 28.9517C103.146 23.8813 95.8311 23.1862 90.8453 27.8068C89.7491 28.8122 88.8699 29.9965 88.0221 31.1383C87.3529 32.0396 86.7034 32.9145 85.9823 33.6541C84.7155 34.9625 82.9174 35.6986 81.3236 34.9625C79.819 34.2559 78.7988 32.8335 77.7257 31.3372C77.3707 30.8423 77.0099 30.3392 76.6239 29.8513C74.8258 27.6023 72.5782 25.5987 69.7177 24.9445C66.3666 24.1267 62.8112 24.8627 60.0732 26.989C58.5999 28.1452 57.3307 29.8123 56.2225 31.268L56.2211 31.2699C55.7621 31.8727 55.3308 32.4392 54.9241 32.918C53.412 34.6763 52.186 35.6577 50.061 35.1261C48.5801 34.7647 47.3545 33.1256 46.1869 31.564C46.0334 31.3587 45.881 31.1548 45.7291 30.9553C43.8494 28.5019 41.806 26.253 38.782 25.1898C35.6353 24.1676 32.2025 24.5356 29.3827 26.253C27.3749 27.4195 25.752 29.5618 24.392 31.3572L24.3916 31.3577C24.0355 31.8277 23.6975 32.274 23.3754 32.6727C21.7407 34.6354 19.9835 35.8212 17.9402 34.8808C16.4211 34.1925 15.3443 32.6996 14.2162 31.1358C13.736 30.4699 13.2463 29.7911 12.7094 29.1562C10.3391 26.2938 7.27417 24.6174 3.55536 24.4947C-1.18512 24.372 -1.18512 31.7322 3.55536 31.8549ZM5.96637 57.166C5.27161 56.6344 4.41345 56.3482 3.55524 56.3482C-1.14435 56.2664 -1.14435 48.9062 3.59613 49.0289C7.31494 49.1106 10.3799 50.828 12.7501 53.6494C13.2871 54.2844 13.7767 54.9632 14.257 55.6291C15.3851 57.1929 16.4619 58.6858 17.981 59.3741C20.0243 60.3145 21.7815 59.1287 23.4161 57.166C23.8073 56.7044 24.2181 56.1738 24.6528 55.6124C25.9896 53.8861 27.5525 51.8678 29.4644 50.6645C32.2842 48.9471 35.7169 48.5791 38.8635 49.6013C41.8877 50.6645 43.931 52.9134 45.8108 55.3668C45.9628 55.5663 46.1152 55.7703 46.2687 55.9755C47.4363 57.5372 48.6617 59.1762 50.1426 59.5376C52.2677 60.0692 53.4937 59.0878 55.0057 57.3296C55.413 56.8501 55.8448 56.2829 56.3043 55.6793C57.4125 54.2237 58.6815 52.5567 60.1548 51.4005C62.8928 49.2742 66.4482 48.5382 69.7992 49.356C72.6599 50.0102 74.9075 52.0138 76.7056 54.2628C77.0917 54.7508 77.4525 55.2539 77.8075 55.7489C78.8805 57.2451 79.9005 58.6674 81.4052 59.3741C82.999 60.1101 84.7971 59.3741 86.064 58.0656C86.785 57.326 87.4346 56.4511 88.1038 55.5498C88.9515 54.408 89.8308 53.2238 90.927 52.2183C95.9127 47.5977 103.228 48.2928 107.641 53.3632C108.266 54.0881 108.829 54.8435 109.388 55.5921C109.743 56.0681 110.096 56.5415 110.461 57.0024C110.665 57.2478 112.055 58.7607 112.3 58.9243C113.771 59.9465 115.692 59.8647 117.081 58.7607C118.177 57.821 118.967 56.7343 119.786 55.6079C120.463 54.6758 121.16 53.7165 122.067 52.7907C124.233 50.46 127.257 49.1106 130.445 49.0289C135.185 48.9062 135.185 56.2664 130.445 56.3891C129.464 56.3891 128.524 56.7571 127.829 57.4113C126.889 58.3109 126.072 59.2923 125.336 60.3554C123.334 63.0542 121.127 65.5894 117.776 66.5707C114.016 67.6339 109.971 66.6934 107.069 64.0764C105.759 62.9324 104.754 61.5938 103.78 60.2956C103.083 59.3666 102.401 58.4583 101.634 57.6567C100.449 56.3482 98.5281 55.9802 96.9343 56.798C95.6481 57.5 94.6547 58.8715 93.6099 60.3139C93.1941 60.8879 92.7701 61.4732 92.3164 62.0319C88.0664 67.2658 80.8739 68.697 75.5205 64.1582C74.2404 63.0865 73.1774 61.6638 72.2034 60.3603C71.6538 59.6247 71.1326 58.9271 70.6166 58.3518C70.3304 58.0247 70.0035 57.6976 69.6766 57.3704C69.6643 57.3581 69.6108 57.3121 69.5525 57.2619C69.4814 57.2007 69.4031 57.1332 69.3824 57.1124C69.0897 56.9086 68.7701 56.7356 68.4507 56.5935C67.4872 56.1919 66.4056 56.2242 65.4767 56.6518C65.6624 56.5752 64.5264 57.282 64.641 57.167C64.1674 57.5673 63.6963 58.0413 63.3015 58.5154C62.9618 58.9039 62.6221 59.3645 62.248 59.8716C61.9922 60.2184 61.7203 60.5868 61.4216 60.9688C59.5419 63.4222 57.4167 65.6302 54.3518 66.5298C51.1643 67.4703 47.7316 66.9387 44.9935 65.0987C43.2236 63.8525 41.6904 61.8698 40.4358 60.2476C40.1261 59.8472 39.8334 59.4687 39.5583 59.1287C38.741 58.0656 38.0054 57.2069 37.1472 56.7571C36.4525 56.43 35.7169 56.2664 34.9404 56.3073C33.0341 56.5362 31.8746 58.0821 30.699 59.6498C30.6145 59.7624 30.53 59.8751 30.4452 59.9874C28.5653 62.4817 26.7263 64.8533 23.8248 66.08C20.6781 67.4294 17.0819 67.2658 14.0987 65.6302C11.7646 64.3726 10.1877 62.2941 8.61957 60.227C8.40314 59.9417 8.18689 59.6567 7.96881 59.3741C7.35577 58.5971 6.70197 57.8611 5.96637 57.166Z" fill="#2429FF"/>
</svg>
