<svg width="134" height="18" viewBox="0 0 134 18" fill="none" xmlns="http://www.w3.org/2000/svg">
<path d="M3.55306 7.36072C4.41967 7.36453 5.26125 7.65169 5.94937 8.17839C6.67612 8.84762 7.34251 9.57954 7.94084 10.3656C9.74011 12.7083 11.4044 15.1694 14.0747 16.6371C15.5583 17.436 17.2024 17.8911 18.8856 17.969C20.5689 18.0468 22.248 17.7453 23.799 17.0869C26.7024 15.8604 28.5589 13.4687 30.4072 11.0157C31.679 9.3313 32.8608 7.58967 34.9054 7.33619C35.6651 7.30768 36.4203 7.46485 37.1054 7.79409C37.956 8.24789 38.6921 9.10644 39.5181 10.1408C40.8921 11.8579 42.7568 14.5685 44.9773 16.1138C46.3376 17.0194 47.8797 17.6164 49.4953 17.8629C51.1109 18.1094 52.7609 17.9994 54.3294 17.5407C57.3882 16.6371 59.531 14.4295 61.4079 11.9764C62.1358 11.028 62.7206 10.1817 63.3013 9.52345C63.7221 9.01829 64.1844 8.54922 64.6834 8.12115C64.3277 8.40734 65.8407 7.48337 65.4072 7.65917C65.8785 7.438 66.3908 7.31792 66.9113 7.30665C67.4318 7.29539 67.9488 7.39319 68.4292 7.59376C68.7997 7.76475 69.1518 7.97296 69.4801 8.21518C69.1121 7.94127 69.6069 8.35419 69.6396 8.38281C69.9681 8.7057 70.278 9.04694 70.5679 9.40489C71.995 11.0157 73.4876 13.5423 75.475 15.2103C80.8524 19.7525 88.0413 18.3093 92.2859 13.068C93.8685 11.1138 95.0994 8.82435 96.9109 7.8227C97.6818 7.42731 98.5616 7.29713 99.414 7.45235C100.266 7.60756 101.044 8.03951 101.626 8.68125C103.462 10.5905 104.803 13.1334 107.044 15.0877C108.476 16.3714 110.209 17.2721 112.082 17.706C113.955 18.1399 115.908 18.0929 117.758 17.5693C121.107 16.5922 123.303 14.037 125.327 11.3632C126.049 10.2914 126.885 9.3016 127.822 8.41142C128.53 7.73827 129.47 7.36224 130.447 7.36072C135.174 7.2299 135.195 -0.129103 130.447 0.00172382C128.87 0.0327028 127.316 0.379338 125.875 1.02115C124.434 1.66296 123.137 2.58693 122.06 3.73846C120.077 5.78263 119.071 8.01486 117.063 9.73195C116.389 10.27 115.559 10.5749 114.696 10.6007C113.834 10.6265 112.987 10.3718 112.282 9.87505C112.049 9.71151 110.647 8.23971 110.442 7.94944C109.494 6.75565 108.643 5.49644 107.641 4.32718C103.225 -0.746441 95.8968 -1.42102 90.8792 3.19062C88.9082 5.00175 87.6405 7.37299 86.0294 9.05329C84.7658 10.3697 82.9665 11.0975 81.384 10.382C79.3802 9.45804 78.2189 7.23807 76.665 5.2675C74.882 3.01074 72.633 1.01972 69.7582 0.336967C68.1022 -0.0717633 66.375 -0.100177 64.7065 0.253857C63.0379 0.607892 61.4712 1.33518 60.1239 2.38113C58.067 4.00829 56.3659 6.68206 54.9673 8.30922C53.4584 10.0713 52.2398 11.0484 50.1134 10.5128C48.4327 10.104 47.0751 8.05983 45.7665 6.33455C43.8895 3.88155 41.8531 1.61662 38.8148 0.578179C37.2626 0.0653343 35.6174 -0.103765 33.9933 0.0826105C32.3692 0.268986 30.8051 0.806375 29.4095 1.6575C26.8618 3.23968 24.9644 6.26505 23.3819 8.17839C21.7462 10.1408 19.9674 11.3182 17.9514 10.4024C15.7636 9.40489 14.5082 6.78427 12.7253 4.67878C10.3535 1.80468 7.28655 0.10802 3.55306 0.00172382C-1.1864 -0.125014 -1.18231 7.23398 3.55306 7.36072Z" fill="#2429FF"/>
</svg>
